<?xml version="1.0" encoding="iso-8859-1"?>
<!-- Generator: Adobe Illustrator 21.0.0, SVG Export Plug-In . SVG Version: 6.00 Build 0)  -->
<svg version="1.1" xmlns="http://www.w3.org/2000/svg" xmlns:xlink="http://www.w3.org/1999/xlink" x="0px" y="0px"
	 viewBox="0 0 32 32.059" style="enable-background:new 0 0 32 32.059;" xml:space="preserve">
<g id="Food_cart">
	<g>
		<rect style="fill:none;" width="32" height="32"/>
		<g>
			<path style="fill:#F26C9A;" d="M12,3.872l0-2.813C12,0.474,12.474,0,13.059,0h5.883C19.526,0,20,0.474,20,1.059v3
				C20,6.619,17.652,8.633,15.025,8C13.189,7.557,12,5.76,12,3.872z"/>
		</g>
		<path style="fill:#D95782;" d="M18.941,0H16v8.116c2.206,0,4-1.819,4-4.058v-3C20,0.474,19.526,0,18.941,0z"/>
		<g>
			<path style="fill:#665247;" d="M25,32.059c-0.584,0-1.059-0.474-1.059-1.059v-4c0-0.585,0.475-1.059,1.059-1.059
				s1.059,0.474,1.059,1.059v4C26.059,31.585,25.584,32.059,25,32.059z"/>
			<g>
				<path style="fill:#F26C9A;" d="M30,27c0,0.552-0.448,1-1,1H3c-0.552,0-1-0.448-1-1V16h28V27z"/>
			</g>
			<path style="fill:#D95782;" d="M16,28h13c0.552,0,1-0.448,1-1V16H16V28z"/>
			<circle style="fill:#736056;" cx="11" cy="27" r="5.059"/>
			<circle style="fill:#EDF0F2;" cx="11" cy="27" r="2.941"/>
		</g>
		<g>
			<path style="fill:#A6673A;" d="M7,16.059c-0.584,0-1.059-0.474-1.059-1.059V5c0-0.585,0.475-1.059,1.059-1.059
				S8.059,4.415,8.059,5v10C8.059,15.585,7.584,16.059,7,16.059z"/>
		</g>
		<g>
			<path style="fill:#99522E;" d="M25,16.059c-0.584,0-1.059-0.474-1.059-1.059V5c0-0.585,0.475-1.059,1.059-1.059
				S26.059,4.415,26.059,5v10C26.059,15.585,25.584,16.059,25,16.059z"/>
		</g>
		<circle style="fill:#736056;" cx="11" cy="27" r="1"/>
	</g>
	<path style="fill:#FFCC33;" d="M24.941,0h-5.883C19.038,0,19.021,0.011,19,0.012v6.675C19.515,7.319,20.199,7.801,21.025,8
		C23.652,8.633,26,6.619,26,4.059v-3C26,0.474,25.526,0,24.941,0z"/>
	<path style="fill:#D95782;" d="M28.941,0h-3.883C25.038,0,25.021,0.011,25,0.012v6.675C25.515,7.319,26.199,7.801,27.025,8
		C29.652,8.633,32,6.619,32,4.059v-1C32,1.369,30.631,0,28.941,0z"/>
	<path style="fill:#FFE14D;" d="M7.059,0h5.883C12.962,0,12.979,0.011,13,0.012v6.675C12.485,7.319,11.801,7.801,10.975,8
		C8.348,8.633,6,6.619,6,4.059v-3C6,0.474,6.474,0,7.059,0z"/>
	<path style="fill:#F26C9A;" d="M3.059,0h3.883C6.962,0,6.979,0.011,7,0.012v6.675C6.485,7.319,5.801,7.801,4.975,8
		C2.348,8.633,0,6.619,0,4.059v-1C0,1.369,1.369,0,3.059,0z"/>
	<g>
		<path style="fill:#FF9F19;" d="M30,18H2v-3c0-0.552,0.448-1,1-1h26c0.552,0,1,0.448,1,1V18z"/>
	</g>
	<path style="fill:#F28618;" d="M29,14H16v4h14v-3C30,14.448,29.552,14,29,14z"/>
</g>
<g id="Layer_1">
</g>
</svg>
